<svg xmlns="http://www.w3.org/2000/svg" viewBox="0 0 390.29 88.87"><defs><style>.cls-1{fill:#fff;}.cls-2{fill:#fecf07;}.cls-3{fill:#231f20;}</style></defs><g id="Layer_2" data-name="Layer 2"><g id="Lockup"><rect class="cls-1" x="181.07" width="1.89" height="88.87"/><g id="Advance"><path class="cls-2" d="M236.28,23.59h7.07L245.09,45h-7L238,41.47h-8L227.58,45h-7.17Zm1.66,13.54-.13-7.19-4.9,7.19Z"/><path class="cls-2" d="M258.89,44.94h-8.68c-4.14,0-5.8-3.38-4.31-8.39s5.23-8.42,9.29-8.42a7.14,7.14,0,0,1,3.16.69l1.71-5.22h5.71Zm-2.15-11.11a5.56,5.56,0,0,0-1.77-.34,3.86,3.86,0,0,0-3.46,3.12c-.48,1.82.3,3,2,3a6,6,0,0,0,1.47-.28Z"/><path class="cls-2" d="M264.45,28.42h6.14L270,37.21l5.9-8.79h5.2l-11.6,16.52h-4.7Z"/><path class="cls-2" d="M288.66,45.16c-2.92.22-4.23-.13-4.64-1.53a8.23,8.23,0,0,1-4.71,1.59c-3.25,0-4-1.91-3.32-4a6.23,6.23,0,0,1,2-2.81c2.1-1.76,6.11-2,8.08-3.35.44-1.5,0-2.36-1.63-2-2,.42-3,1-6,2.82L280,31a16.24,16.24,0,0,1,7.52-2.82c3.35-.25,6,1.57,4.69,5.73l-1.52,4.69c-.53,1.66-.58,2.16,1,2.2Zm-3.6-6.95c-1.45.89-3.26.73-3.83,2.56-.28.87,0,1.5.8,1.5a3.73,3.73,0,0,0,2.1-.91,4.38,4.38,0,0,1,.31-1.25Z"/><path class="cls-2" d="M296.19,28.42h5.72l-.72,2.15c2.13-1.75,3.64-2.44,5.45-2.44,3.19,0,4.27,2.23,3.09,5.89l-3.51,10.92H300.5l2.92-9c.53-1.65.25-2.4-.88-2.4-.9,0-1.83.56-2.87,1.78l-3.1,9.67h-5.72Z"/><path class="cls-2" d="M320,44.19a13.22,13.22,0,0,1-5,1c-4.87,0-7.13-3.47-5.52-8.45,1.33-4.13,5.21-8.64,10.85-8.64a11.45,11.45,0,0,1,4.42.85l-1.77,5.48a6,6,0,0,0-3.32-1,4.69,4.69,0,0,0-4.46,3.22c-.59,1.88.46,3.16,2.58,3.16a9.82,9.82,0,0,0,3.89-1Z"/><path class="cls-2" d="M336.18,42.49a9.93,9.93,0,0,1-7.38,2.73c-5,0-7-3.79-5.48-8.61s5.94-8.48,10.23-8.48,6.43,3.72,4.17,9.44h-9.21c-.5,1.69.46,3.29,2.66,3.29a12.46,12.46,0,0,0,6.16-1.94Zm-2.85-7.35c.66-2.07.3-3.13-1.1-3.13s-2.32.93-2.92,3.13Z"/></g><g id="Auto_Parts" data-name="Auto Parts"><path class="cls-2" d="M274.68,46.42h9.09c5.09,0,6.06,2.74,5.16,5.62s-3.62,5.85-9.17,5.85h-2.59l-2.05,6.35h-6.2Zm5,7.89a3,3,0,0,0,3.19-2.22c.44-1.39,0-2.14-1.8-2.14h-1.36l-1.41,4.36Z"/><path class="cls-2" d="M219.33,46.42h5.9l1.45,17.82h-5.87l0-2.9h-6.71l-2,2.9h-6Zm1.38,11.3-.1-6-4.09,6Z"/><path class="cls-2" d="M296.2,64.41c-2.43.18-3.53-.1-3.87-1.28a6.82,6.82,0,0,1-3.93,1.34c-2.71,0-3.34-1.6-2.77-3.37a5.21,5.21,0,0,1,1.67-2.35c1.75-1.46,5.09-1.67,6.74-2.79.37-1.26,0-2-1.36-1.7-1.7.35-2.51.82-5,2.35l1.3-4a13.48,13.48,0,0,1,6.27-2.35c2.79-.21,5,1.31,3.9,4.78l-1.26,3.91c-.44,1.39-.48,1.81.87,1.83Zm-3-5.8c-1.21.75-2.72.62-3.2,2.15-.23.72.05,1.25.67,1.25a3.11,3.11,0,0,0,1.75-.77,3.62,3.62,0,0,1,.26-1Z"/><path class="cls-2" d="M240.15,59.17c-.41,1.27.07,1.8,1.35,1.35l-2.43,3.71a8.82,8.82,0,0,1-2.14.23c-1.84,0-2.48-.65-2.3-2.37a7.09,7.09,0,0,1-4.9,2.37c-2,0-3.74-1.2-2.45-5.22l2.84-8.79h4.78l-2.41,7.46c-.49,1.46-.24,2.09.75,2.09.71,0,1.39-.42,2.32-1.41l2.64-8.14H243Z"/><path class="cls-2" d="M250.62,62.92A8.15,8.15,0,0,1,246,64.46a3.65,3.65,0,0,1-3.3-1.46c-.43-.78-.37-1.77.25-3.65l1.76-5.46h-2.11l.54-1.69,7.69-5.88h1.08l-1.32,4.13h3.83l-1.11,3.44h-3.83L248.1,58c-.42,1.28-.14,1.82.85,1.82a6.21,6.21,0,0,0,3-1.07Z"/><path class="cls-2" d="M262.23,50.21c5.16,0,5.92,3.79,4.85,7.13a10,10,0,0,1-9.39,7.12c-5.16,0-6-3.75-4.87-7.12A9.94,9.94,0,0,1,262.23,50.21ZM259.1,60a3.6,3.6,0,0,0,3.21-2.66c.5-1.57-.11-2.66-1.51-2.66a3.58,3.58,0,0,0-3.21,2.66C257.07,58.9,257.7,60,259.1,60Z"/><path class="cls-2" d="M332.14,55a4.39,4.39,0,0,0-2.87-1.38,1.48,1.48,0,0,0-1.43.94c-.44,1.38,2,1.07,3,2.92a3.56,3.56,0,0,1,.17,2.85,6.25,6.25,0,0,1-6,4.17,7.65,7.65,0,0,1-4.75-1.33l1.24-3.91c1.15,1.36,2.07,1.88,3.22,1.88A1.55,1.55,0,0,0,326.35,60c.57-1.73-4.52-1.7-3.2-5.77.57-1.75,2.37-4,6.18-4a6.38,6.38,0,0,1,4,1.12Z"/><path class="cls-2" d="M307,50.46l-1.19,3.68h0c1.68-2.59,3.45-3.92,5.12-3.92a3.91,3.91,0,0,1,2.6,1.07l-3.87,5.48A1.92,1.92,0,0,0,308,55.63c-1.17,0-2.41,1.3-3.18,2.89L303,64.24h-4.77l4.45-13.78Z"/><path class="cls-2" d="M317.84,46.32,312.5,53.9h1.09l-1.76,5.46c-.62,1.88-.68,2.87-.25,3.65a3.64,3.64,0,0,0,3.29,1.46,8.16,8.16,0,0,0,4.67-1.54l1.35-4.15a6.21,6.21,0,0,1-3,1.07c-1,0-1.26-.54-.85-1.82l1.35-4.13h3.83l1.11-3.44h-3.83l1.32-4.13Z"/></g><polygon id="bar" class="cls-2" points="337.85 64.24 351.01 23.59 345.36 23.59 332.21 64.24 337.85 64.24"/><g id="flag"><path class="cls-3" d="M348.52,41.36l-1.63,5.06L346.07,48l-2.62,8.16-.18,1.55-2,6.17a41.13,41.13,0,0,0,7.62,1.37l2.08.63a40.13,40.13,0,0,0,6.58,0,24.84,24.84,0,0,0,4.4-1l2.49-1.07a13.23,13.23,0,0,1,3.28-.38l5,.14,1.74-5.4,1.07-2.34,2.63-8.14.48-2.49L380,40.92l.79-1.47,2.62-8.15v-1l2.15-6.68s-1.54-.05-5-.2a13.75,13.75,0,0,0-4,.57l-1.5.11a23.65,23.65,0,0,1-4.39,1.1,37.39,37.39,0,0,1-6.61,0l-2.18.19A39.9,39.9,0,0,1,354.11,24L352,30.54l-.68,1.12-2.63,8.14Z"/><path class="cls-1" d="M358.83,41.4a40.24,40.24,0,0,0,6.59,0,24.11,24.11,0,0,0,4.43-1.09l2.62-8.15A24.31,24.31,0,0,1,368,33.22a40.25,40.25,0,0,1-6.59,0Z"/><path class="cls-1" d="M353.58,57.7a40.36,40.36,0,0,0,6.6,0,24.22,24.22,0,0,0,4.42-1.09l2.62-8.14a25,25,0,0,1-4.42,1.08,40.13,40.13,0,0,1-6.58,0Z"/><path class="cls-1" d="M375,24.1l-2.57,8a18.78,18.78,0,0,1,5.83-1l5.13.16,2.62-8.1s-1.51,0-5.14-.21A17.37,17.37,0,0,0,375,24.1Z"/><path class="cls-1" d="M343.45,56.11a43.34,43.34,0,0,0,8,1.4c.75.08,1.45.14,2.13.19L351,65.83l-2.16-.18a43.11,43.11,0,0,1-8-1.42Z"/><path class="cls-1" d="M361.45,33.24l2.59-8-2.12-.18a41.08,41.08,0,0,1-8-1.5l-2.61,8.11a43.5,43.5,0,0,0,8,1.41Z"/><path class="cls-1" d="M346.07,48l2.62-8.15a42.7,42.7,0,0,0,8,1.41c.76.08,1.46.14,2.15.19l-2.61,8.14c-.69,0-1.4-.1-2.15-.17A43.13,43.13,0,0,1,346.07,48Z"/><path class="cls-1" d="M375.56,55.74l-5.12-.15a18.6,18.6,0,0,0-5.84,1L362,64.79a20.09,20.09,0,0,1,5.86-1.07c3.62.07,5.13.15,5.13.15l2.61-8.13"/><path class="cls-1" d="M367.22,48.44l2.63-8.16a19.13,19.13,0,0,1,5.83-1c3.58.1,5.13.16,5.13.16l-2.62,8.15s-1.49-.06-5.13-.16A19,19,0,0,0,367.22,48.44Z"/></g><path id="reg_trade_mark" data-name="reg trade mark" class="cls-1" d="M387.42,24.49a1.28,1.28,0,1,1,1.28,1.32A1.28,1.28,0,0,1,387.42,24.49Zm1.28,1.58a1.58,1.58,0,1,0-1.6-1.58A1.57,1.57,0,0,0,388.7,26.07Zm-.33-1.45h.31l.48.79h.31L389,24.6a.47.47,0,0,0,.47-.5c0-.35-.21-.51-.64-.51h-.69v1.82h.28Zm0-.23v-.57h.37c.19,0,.4,0,.4.27s-.21.3-.45.3Z"/><path class="cls-3" d="M148.05,29.91H117.33V58.22h30.72Z"/><path class="cls-1" d="M149.62,28.33H115.76V59.81h33.87Zm-1.57,29.89H117.33V29.91h30.72Z"/><path class="cls-1" d="M130.7,31.64l0,.08c-1,1.57-2.31,1.86-4,1.82h-.41v3.71H130V56.49h5.95V31.64Z"/><path class="cls-1" d="M154,31.48h-.66V28.89h-.95v-.56h2.56v.56H154Zm4.37,0h-.62V28.85h0l-.58,2.63h-.65l-.57-2.63h0v2.63h-.62V28.33h1l.57,2.48h0l.56-2.48h1Z"/><path class="cls-1" d="M98.84,59.81h6.56V28.33H98.84ZM88.64,34.54H95.2V28.33H88.64Zm0,25.27H95.2V36.75H88.64Zm-15-5.93a5.59,5.59,0,1,1,5.59-5.59A5.6,5.6,0,0,1,73.65,53.88ZM68,59.81v-2a8,8,0,0,0,6.3,2.57,11.8,11.8,0,0,0,11.61-12c0-6.48-5-12.11-11.61-12.11A9.38,9.38,0,0,0,68,38.53V28.33H61.42V59.81ZM58.83,48.28a12.21,12.21,0,1,1-12.2-12.2A12.21,12.21,0,0,1,58.83,48.28Zm-2.73,0a9.48,9.48,0,1,0-9.47,9.48A9.48,9.48,0,0,0,56.1,48.28Zm-1.67,0a7.81,7.81,0,1,1-7.8-7.8A7.8,7.8,0,0,1,54.43,48.28Zm-2.59,0a5.22,5.22,0,1,0-5.21,5.22A5.21,5.21,0,0,0,51.84,48.28ZM0,28.33H10.2L16,47.66h.09L21.9,28.33h9.93V59.81H25.27V37.55h-.09L18.89,59.81h-6L6.65,37.55H6.56V59.81H0Z"/></g></g></svg>